<mxfile host="Electron" agent="Mozilla/5.0 (Windows NT 10.0; Win64; x64) AppleWebKit/537.36 (KHTML, like Gecko) draw.io/21.1.2 Chrome/106.0.5249.199 Electron/21.4.3 Safari/537.36" modified="2024-11-26T13:45:45.079Z" etag="ruQiOywJwuBeulALx0X1" version="21.1.2" type="device" pages="3">
  <diagram name="Satellite" id="J0_DxHFnlpgLoHAOn9Bt">
    <mxGraphModel dx="1418" dy="820" grid="1" gridSize="10" guides="1" tooltips="1" connect="1" arrows="1" fold="1" page="1" pageScale="1" pageWidth="827" pageHeight="1169" math="0" shadow="0">
      <root>
        <mxCell id="0" />
        <mxCell id="1" parent="0" />
        <mxCell id="11TepUGv0tUrHH1xwQbg-1" value="&lt;div&gt;&lt;br&gt;&lt;/div&gt;&lt;div&gt;&lt;br&gt;&lt;/div&gt;&lt;div&gt;&lt;br&gt;&lt;/div&gt;&lt;div&gt;&lt;br&gt;&lt;/div&gt;&lt;div&gt;&lt;br&gt;&lt;/div&gt;&lt;div&gt;&lt;br&gt;&lt;/div&gt;&lt;div&gt;&lt;br&gt;&lt;/div&gt;&lt;div&gt;&lt;br&gt;&lt;/div&gt;&lt;div&gt;&lt;br&gt;&lt;/div&gt;&lt;div&gt;&lt;br&gt;&lt;/div&gt;&lt;div&gt;&lt;br&gt;&lt;/div&gt;&lt;div&gt;&lt;br&gt;&lt;/div&gt;&lt;div&gt;&lt;br&gt;&lt;/div&gt;&lt;div&gt;&lt;br&gt;&lt;/div&gt;&lt;div&gt;&lt;br&gt;&lt;/div&gt;&lt;div&gt;&lt;br&gt;&lt;/div&gt;" style="rounded=0;whiteSpace=wrap;html=1;" parent="1" vertex="1">
          <mxGeometry x="190" y="200" width="180" height="130" as="geometry" />
        </mxCell>
        <mxCell id="11TepUGv0tUrHH1xwQbg-46" style="edgeStyle=orthogonalEdgeStyle;rounded=0;orthogonalLoop=1;jettySize=auto;html=1;exitX=1;exitY=0.5;exitDx=0;exitDy=0;" parent="1" source="11TepUGv0tUrHH1xwQbg-2" target="11TepUGv0tUrHH1xwQbg-3" edge="1">
          <mxGeometry relative="1" as="geometry">
            <mxPoint x="470" y="260" as="sourcePoint" />
          </mxGeometry>
        </mxCell>
        <mxCell id="11TepUGv0tUrHH1xwQbg-2" value="&lt;br&gt;&lt;div&gt;&lt;br&gt;&lt;/div&gt;&lt;div&gt;&lt;br&gt;&lt;/div&gt;&lt;div&gt;Driver&lt;/div&gt;" style="rounded=0;whiteSpace=wrap;html=1;" parent="1" vertex="1">
          <mxGeometry x="390" y="240" width="70" height="60" as="geometry" />
        </mxCell>
        <mxCell id="11TepUGv0tUrHH1xwQbg-23" value="" style="group" parent="1" vertex="1" connectable="0">
          <mxGeometry x="60" y="170" width="71" height="60" as="geometry" />
        </mxCell>
        <mxCell id="11TepUGv0tUrHH1xwQbg-22" value="&lt;div&gt;&lt;br&gt;&lt;/div&gt;&lt;div&gt;&lt;br&gt;&lt;/div&gt;&lt;div&gt;&lt;br&gt;&lt;/div&gt;&lt;div&gt;Supply&lt;/div&gt;" style="rounded=0;whiteSpace=wrap;html=1;" parent="11TepUGv0tUrHH1xwQbg-23" vertex="1">
          <mxGeometry width="70" height="60" as="geometry" />
        </mxCell>
        <mxCell id="11TepUGv0tUrHH1xwQbg-21" value="" style="verticalLabelPosition=bottom;shadow=0;dashed=0;align=center;fillColor=strokeColor;html=1;verticalAlign=top;strokeWidth=1;shape=mxgraph.electrical.miscellaneous.monocell_battery;" parent="11TepUGv0tUrHH1xwQbg-23" vertex="1">
          <mxGeometry x="10" y="10" width="50" height="30" as="geometry" />
        </mxCell>
        <mxCell id="tvFmNNSFlGYv01UcEDl_-4" style="edgeStyle=orthogonalEdgeStyle;rounded=0;orthogonalLoop=1;jettySize=auto;html=1;entryX=0;entryY=0.5;entryDx=0;entryDy=0;" parent="1" source="11TepUGv0tUrHH1xwQbg-42" target="tvFmNNSFlGYv01UcEDl_-5" edge="1">
          <mxGeometry relative="1" as="geometry">
            <mxPoint x="315" y="230" as="targetPoint" />
          </mxGeometry>
        </mxCell>
        <mxCell id="11TepUGv0tUrHH1xwQbg-42" value="&lt;div&gt;Radio&lt;/div&gt;&lt;div&gt;Interface&lt;/div&gt;" style="rounded=0;whiteSpace=wrap;html=1;dashed=1;" parent="1" vertex="1">
          <mxGeometry x="190" y="245" width="100" height="50" as="geometry" />
        </mxCell>
        <mxCell id="11TepUGv0tUrHH1xwQbg-45" value="" style="group" parent="1" vertex="1" connectable="0">
          <mxGeometry x="479.995" y="240" width="74" height="60" as="geometry" />
        </mxCell>
        <mxCell id="11TepUGv0tUrHH1xwQbg-3" value="&lt;div&gt;&lt;br&gt;&lt;/div&gt;&lt;div&gt;&lt;br&gt;&lt;/div&gt;&lt;div&gt;&lt;br&gt;&lt;/div&gt;&lt;div&gt;Transducer&lt;/div&gt;" style="rounded=0;whiteSpace=wrap;html=1;" parent="11TepUGv0tUrHH1xwQbg-45" vertex="1">
          <mxGeometry width="70" height="60" as="geometry" />
        </mxCell>
        <mxCell id="11TepUGv0tUrHH1xwQbg-7" value="" style="group" parent="11TepUGv0tUrHH1xwQbg-45" vertex="1" connectable="0">
          <mxGeometry x="16.25" y="10" width="37.5" height="30" as="geometry" />
        </mxCell>
        <mxCell id="11TepUGv0tUrHH1xwQbg-5" value="" style="endArrow=none;html=1;rounded=0;" parent="11TepUGv0tUrHH1xwQbg-7" edge="1">
          <mxGeometry width="50" height="50" relative="1" as="geometry">
            <mxPoint y="7.39500000000001" as="sourcePoint" />
            <mxPoint x="15" y="7.39500000000001" as="targetPoint" />
          </mxGeometry>
        </mxCell>
        <mxCell id="11TepUGv0tUrHH1xwQbg-6" value="" style="endArrow=none;html=1;rounded=0;" parent="11TepUGv0tUrHH1xwQbg-7" edge="1">
          <mxGeometry width="50" height="50" relative="1" as="geometry">
            <mxPoint y="22.39500000000001" as="sourcePoint" />
            <mxPoint x="15" y="22.39500000000001" as="targetPoint" />
          </mxGeometry>
        </mxCell>
        <mxCell id="11TepUGv0tUrHH1xwQbg-4" value="" style="shape=cylinder3;whiteSpace=wrap;html=1;boundedLbl=1;backgroundOutline=1;size=4.724137931034591;rotation=90;" parent="11TepUGv0tUrHH1xwQbg-7" vertex="1">
          <mxGeometry x="3.75" width="30" height="30" as="geometry" />
        </mxCell>
        <mxCell id="11TepUGv0tUrHH1xwQbg-68" value="Microcontroller" style="text;html=1;align=center;verticalAlign=middle;whiteSpace=wrap;rounded=0;" parent="1" vertex="1">
          <mxGeometry x="225" y="200" width="110" height="30" as="geometry" />
        </mxCell>
        <mxCell id="11TepUGv0tUrHH1xwQbg-78" value="" style="verticalLabelPosition=bottom;shadow=0;dashed=0;align=center;html=1;verticalAlign=top;shape=mxgraph.electrical.transistors.npn_transistor_5;" parent="1" vertex="1">
          <mxGeometry x="423.8" y="250" width="22.4" height="35" as="geometry" />
        </mxCell>
        <mxCell id="11TepUGv0tUrHH1xwQbg-79" value="" style="endArrow=classic;html=1;rounded=0;entryX=0;entryY=0.5;entryDx=0;entryDy=0;exitX=1;exitY=0.5;exitDx=0;exitDy=0;" parent="1" target="11TepUGv0tUrHH1xwQbg-2" edge="1">
          <mxGeometry width="50" height="50" relative="1" as="geometry">
            <mxPoint x="370" y="270" as="sourcePoint" />
            <mxPoint x="450" y="340" as="targetPoint" />
          </mxGeometry>
        </mxCell>
        <mxCell id="11TepUGv0tUrHH1xwQbg-81" style="edgeStyle=orthogonalEdgeStyle;rounded=0;orthogonalLoop=1;jettySize=auto;html=1;entryX=0;entryY=0.15;entryDx=0;entryDy=0;entryPerimeter=0;" parent="1" source="11TepUGv0tUrHH1xwQbg-22" target="11TepUGv0tUrHH1xwQbg-1" edge="1">
          <mxGeometry relative="1" as="geometry" />
        </mxCell>
        <mxCell id="tvFmNNSFlGYv01UcEDl_-5" value="GPIO" style="rounded=0;whiteSpace=wrap;html=1;" parent="1" vertex="1">
          <mxGeometry x="320" y="230" width="50" height="80" as="geometry" />
        </mxCell>
        <mxCell id="zlR4O2Th5KrKya_efgyw-2" value="" style="group" parent="1" vertex="1" connectable="0">
          <mxGeometry y="190" width="131" height="110" as="geometry" />
        </mxCell>
        <mxCell id="zlR4O2Th5KrKya_efgyw-3" value="&lt;div&gt;&lt;br&gt;&lt;/div&gt;&lt;div&gt;&lt;br&gt;&lt;/div&gt;&lt;div&gt;&lt;br&gt;&lt;/div&gt;&lt;div&gt;Radio&lt;/div&gt;" style="rounded=0;whiteSpace=wrap;html=1;" parent="zlR4O2Th5KrKya_efgyw-2" vertex="1">
          <mxGeometry x="60" y="50" width="71" height="60" as="geometry" />
        </mxCell>
        <mxCell id="zlR4O2Th5KrKya_efgyw-4" value="" style="endArrow=none;html=1;rounded=0;exitX=0;exitY=0.5;exitDx=0;exitDy=0;entryX=0.5;entryY=1;entryDx=0;entryDy=0;entryPerimeter=0;" parent="zlR4O2Th5KrKya_efgyw-2" source="zlR4O2Th5KrKya_efgyw-3" target="zlR4O2Th5KrKya_efgyw-6" edge="1">
          <mxGeometry width="50" height="50" relative="1" as="geometry">
            <mxPoint x="160" y="130" as="sourcePoint" />
            <mxPoint x="210" y="80" as="targetPoint" />
          </mxGeometry>
        </mxCell>
        <mxCell id="zlR4O2Th5KrKya_efgyw-5" value="&lt;font style=&quot;font-size: 20px;&quot;&gt;RF&lt;/font&gt;" style="text;html=1;align=center;verticalAlign=middle;whiteSpace=wrap;rounded=0;" parent="zlR4O2Th5KrKya_efgyw-2" vertex="1">
          <mxGeometry x="77.5" y="65" width="36" height="30" as="geometry" />
        </mxCell>
        <mxCell id="zlR4O2Th5KrKya_efgyw-6" value="" style="verticalLabelPosition=bottom;shadow=0;dashed=0;align=center;html=1;verticalAlign=top;shape=mxgraph.electrical.radio.aerial_-_antenna_1;" parent="zlR4O2Th5KrKya_efgyw-2" vertex="1">
          <mxGeometry y="30" width="41" height="50" as="geometry" />
        </mxCell>
        <mxCell id="zlR4O2Th5KrKya_efgyw-7" style="edgeStyle=orthogonalEdgeStyle;rounded=0;orthogonalLoop=1;jettySize=auto;html=1;entryX=0;entryY=0.5;entryDx=0;entryDy=0;startArrow=classic;startFill=1;" parent="1" source="zlR4O2Th5KrKya_efgyw-3" target="11TepUGv0tUrHH1xwQbg-42" edge="1">
          <mxGeometry relative="1" as="geometry" />
        </mxCell>
      </root>
    </mxGraphModel>
  </diagram>
  <diagram id="_XwgET5hS0Z49mDIUWco" name="Beacon">
    <mxGraphModel dx="1418" dy="820" grid="1" gridSize="5" guides="1" tooltips="1" connect="1" arrows="1" fold="1" page="1" pageScale="1" pageWidth="827" pageHeight="1169" math="1" shadow="0">
      <root>
        <mxCell id="0" />
        <mxCell id="1" parent="0" />
        <mxCell id="vvXzCavtcbA7iBqxT9JU-83" value="" style="endArrow=classic;html=1;rounded=0;exitX=1;exitY=0.5;exitDx=0;exitDy=0;entryX=0;entryY=0.5;entryDx=0;entryDy=0;" parent="1" source="vvXzCavtcbA7iBqxT9JU-51" target="vvXzCavtcbA7iBqxT9JU-69" edge="1">
          <mxGeometry width="50" height="50" relative="1" as="geometry">
            <mxPoint x="101.995" y="340" as="sourcePoint" />
            <mxPoint x="312" y="340" as="targetPoint" />
            <Array as="points" />
          </mxGeometry>
        </mxCell>
        <mxCell id="vvXzCavtcbA7iBqxT9JU-1" value="&lt;div&gt;&lt;br&gt;&lt;/div&gt;&lt;div&gt;&lt;br&gt;&lt;/div&gt;&lt;div&gt;&lt;br&gt;&lt;/div&gt;&lt;div&gt;&lt;br&gt;&lt;/div&gt;&lt;div&gt;&lt;br&gt;&lt;/div&gt;&lt;div&gt;&lt;br&gt;&lt;/div&gt;&lt;div&gt;&lt;br&gt;&lt;/div&gt;&lt;div&gt;&lt;br&gt;&lt;/div&gt;&lt;div&gt;&lt;br&gt;&lt;/div&gt;&lt;div&gt;&lt;br&gt;&lt;/div&gt;&lt;div&gt;&lt;br&gt;&lt;/div&gt;&lt;div&gt;&lt;br&gt;&lt;/div&gt;&lt;div&gt;&lt;br&gt;&lt;/div&gt;&lt;div&gt;&lt;br&gt;&lt;/div&gt;&lt;div&gt;&lt;br&gt;&lt;/div&gt;&lt;div&gt;&lt;br&gt;&lt;/div&gt;" style="rounded=0;whiteSpace=wrap;html=1;" parent="1" vertex="1">
          <mxGeometry x="312" y="160" width="418" height="260" as="geometry" />
        </mxCell>
        <mxCell id="vvXzCavtcbA7iBqxT9JU-73" style="edgeStyle=orthogonalEdgeStyle;rounded=0;orthogonalLoop=1;jettySize=auto;html=1;entryX=0.5;entryY=0;entryDx=0;entryDy=0;exitX=0.5;exitY=1;exitDx=0;exitDy=0;" parent="1" source="vvXzCavtcbA7iBqxT9JU-17" target="vvXzCavtcbA7iBqxT9JU-67" edge="1">
          <mxGeometry relative="1" as="geometry">
            <Array as="points">
              <mxPoint x="371" y="280" />
              <mxPoint x="422" y="280" />
            </Array>
          </mxGeometry>
        </mxCell>
        <mxCell id="vvXzCavtcbA7iBqxT9JU-17" value="&lt;div&gt;Radio&lt;/div&gt;&lt;div&gt;Interface&lt;/div&gt;" style="rounded=0;whiteSpace=wrap;html=1;dashed=1;fillColor=none;" parent="1" vertex="1">
          <mxGeometry x="312" y="180" width="118" height="50" as="geometry" />
        </mxCell>
        <mxCell id="vvXzCavtcbA7iBqxT9JU-76" style="edgeStyle=orthogonalEdgeStyle;rounded=0;orthogonalLoop=1;jettySize=auto;html=1;entryX=0.5;entryY=0;entryDx=0;entryDy=0;" parent="1" source="vvXzCavtcbA7iBqxT9JU-40" target="vvXzCavtcbA7iBqxT9JU-74" edge="1">
          <mxGeometry relative="1" as="geometry" />
        </mxCell>
        <mxCell id="vvXzCavtcbA7iBqxT9JU-40" value="&lt;div&gt;LUT:&lt;/div&gt;&lt;div&gt;Satellite positions&lt;br&gt;&lt;/div&gt;" style="rounded=0;whiteSpace=wrap;html=1;dashed=1;" parent="1" vertex="1">
          <mxGeometry x="487.5" y="238.13" width="130" height="37.5" as="geometry" />
        </mxCell>
        <mxCell id="vvXzCavtcbA7iBqxT9JU-41" value="FPGA" style="text;html=1;align=center;verticalAlign=middle;whiteSpace=wrap;rounded=0;" parent="1" vertex="1">
          <mxGeometry x="502" y="160" width="88" height="30" as="geometry" />
        </mxCell>
        <mxCell id="vvXzCavtcbA7iBqxT9JU-50" value="" style="group" parent="1" vertex="1" connectable="0">
          <mxGeometry x="129.995" y="323.75" width="74" height="60" as="geometry" />
        </mxCell>
        <mxCell id="vvXzCavtcbA7iBqxT9JU-51" value="&lt;div&gt;&lt;br&gt;&lt;/div&gt;&lt;div&gt;&lt;br&gt;&lt;/div&gt;&lt;div&gt;&lt;br&gt;&lt;/div&gt;&lt;div&gt;Transducer&lt;/div&gt;" style="rounded=0;whiteSpace=wrap;html=1;" parent="vvXzCavtcbA7iBqxT9JU-50" vertex="1">
          <mxGeometry width="70" height="60" as="geometry" />
        </mxCell>
        <mxCell id="vvXzCavtcbA7iBqxT9JU-52" value="" style="group" parent="vvXzCavtcbA7iBqxT9JU-50" vertex="1" connectable="0">
          <mxGeometry x="16.25" y="10" width="37.5" height="30" as="geometry" />
        </mxCell>
        <mxCell id="vvXzCavtcbA7iBqxT9JU-53" value="" style="endArrow=none;html=1;rounded=0;" parent="vvXzCavtcbA7iBqxT9JU-52" edge="1">
          <mxGeometry width="50" height="50" relative="1" as="geometry">
            <mxPoint y="7.39500000000001" as="sourcePoint" />
            <mxPoint x="15" y="7.39500000000001" as="targetPoint" />
          </mxGeometry>
        </mxCell>
        <mxCell id="vvXzCavtcbA7iBqxT9JU-54" value="" style="endArrow=none;html=1;rounded=0;" parent="vvXzCavtcbA7iBqxT9JU-52" edge="1">
          <mxGeometry width="50" height="50" relative="1" as="geometry">
            <mxPoint y="22.39500000000001" as="sourcePoint" />
            <mxPoint x="15" y="22.39500000000001" as="targetPoint" />
          </mxGeometry>
        </mxCell>
        <mxCell id="vvXzCavtcbA7iBqxT9JU-55" value="" style="shape=cylinder3;whiteSpace=wrap;html=1;boundedLbl=1;backgroundOutline=1;size=4.724137931034591;rotation=90;" parent="vvXzCavtcbA7iBqxT9JU-52" vertex="1">
          <mxGeometry x="3.75" width="30" height="30" as="geometry" />
        </mxCell>
        <mxCell id="vvXzCavtcbA7iBqxT9JU-58" value="" style="group" parent="1" vertex="1" connectable="0">
          <mxGeometry x="220" y="333.75" width="70" height="50" as="geometry" />
        </mxCell>
        <mxCell id="vvXzCavtcbA7iBqxT9JU-59" value="&lt;div&gt;&lt;br&gt;&lt;/div&gt;&lt;div&gt;&lt;br&gt;&lt;/div&gt;&lt;div&gt;&lt;br&gt;&lt;/div&gt;&lt;div&gt;Amplifier&lt;/div&gt;" style="rounded=0;whiteSpace=wrap;html=1;" parent="vvXzCavtcbA7iBqxT9JU-58" vertex="1">
          <mxGeometry x="-1" y="-9" width="70" height="60" as="geometry" />
        </mxCell>
        <mxCell id="xrNThZKbLCiRQzhycPFz-13" value="" style="group" parent="vvXzCavtcbA7iBqxT9JU-58" vertex="1" connectable="0">
          <mxGeometry x="15" y="-6.5" width="45" height="41.5" as="geometry" />
        </mxCell>
        <mxCell id="xrNThZKbLCiRQzhycPFz-5" value="" style="triangle;whiteSpace=wrap;html=1;" parent="xrNThZKbLCiRQzhycPFz-13" vertex="1">
          <mxGeometry x="7.826086956521739" width="29.34782608695652" height="41.5" as="geometry" />
        </mxCell>
        <mxCell id="xrNThZKbLCiRQzhycPFz-6" value="" style="endArrow=none;html=1;rounded=0;exitX=0;exitY=0.25;exitDx=0;exitDy=0;" parent="xrNThZKbLCiRQzhycPFz-13" source="xrNThZKbLCiRQzhycPFz-5" edge="1">
          <mxGeometry width="50" height="50" relative="1" as="geometry">
            <mxPoint x="29.34782608695652" y="-5.1875" as="sourcePoint" />
            <mxPoint y="10.375" as="targetPoint" />
          </mxGeometry>
        </mxCell>
        <mxCell id="xrNThZKbLCiRQzhycPFz-7" value="" style="endArrow=none;html=1;rounded=0;exitX=0;exitY=0.25;exitDx=0;exitDy=0;" parent="xrNThZKbLCiRQzhycPFz-13" edge="1">
          <mxGeometry width="50" height="50" relative="1" as="geometry">
            <mxPoint x="7.826086956521739" y="31.125" as="sourcePoint" />
            <mxPoint y="31.125" as="targetPoint" />
          </mxGeometry>
        </mxCell>
        <mxCell id="xrNThZKbLCiRQzhycPFz-8" value="" style="endArrow=none;html=1;rounded=0;" parent="xrNThZKbLCiRQzhycPFz-13" edge="1">
          <mxGeometry width="50" height="50" relative="1" as="geometry">
            <mxPoint x="12.228260869565219" y="12.96875" as="sourcePoint" />
            <mxPoint x="12.228260869565219" y="7.78125" as="targetPoint" />
          </mxGeometry>
        </mxCell>
        <mxCell id="xrNThZKbLCiRQzhycPFz-9" value="" style="endArrow=none;html=1;rounded=0;" parent="xrNThZKbLCiRQzhycPFz-13" edge="1">
          <mxGeometry width="50" height="50" relative="1" as="geometry">
            <mxPoint x="14.67391304347826" y="10.375" as="sourcePoint" />
            <mxPoint x="9.782608695652174" y="10.375" as="targetPoint" />
          </mxGeometry>
        </mxCell>
        <mxCell id="xrNThZKbLCiRQzhycPFz-11" value="" style="endArrow=none;html=1;rounded=0;" parent="xrNThZKbLCiRQzhycPFz-13" edge="1">
          <mxGeometry width="50" height="50" relative="1" as="geometry">
            <mxPoint x="14.67391304347826" y="31.125" as="sourcePoint" />
            <mxPoint x="9.782608695652174" y="31.125" as="targetPoint" />
          </mxGeometry>
        </mxCell>
        <mxCell id="xrNThZKbLCiRQzhycPFz-12" value="" style="endArrow=none;html=1;rounded=0;exitX=0;exitY=0.25;exitDx=0;exitDy=0;" parent="xrNThZKbLCiRQzhycPFz-13" edge="1">
          <mxGeometry width="50" height="50" relative="1" as="geometry">
            <mxPoint x="44.99999999999999" y="20.713687499999974" as="sourcePoint" />
            <mxPoint x="37.17391304347826" y="20.713687499999974" as="targetPoint" />
          </mxGeometry>
        </mxCell>
        <mxCell id="vvXzCavtcbA7iBqxT9JU-64" value="" style="group" parent="1" vertex="1" connectable="0">
          <mxGeometry x="150" y="120" width="131" height="110" as="geometry" />
        </mxCell>
        <mxCell id="vvXzCavtcbA7iBqxT9JU-11" value="&lt;div&gt;&lt;br&gt;&lt;/div&gt;&lt;div&gt;&lt;br&gt;&lt;/div&gt;&lt;div&gt;&lt;br&gt;&lt;/div&gt;&lt;div&gt;Radio&lt;/div&gt;" style="rounded=0;whiteSpace=wrap;html=1;" parent="vvXzCavtcbA7iBqxT9JU-64" vertex="1">
          <mxGeometry x="60" y="50" width="71" height="60" as="geometry" />
        </mxCell>
        <mxCell id="vvXzCavtcbA7iBqxT9JU-13" value="" style="endArrow=none;html=1;rounded=0;exitX=0;exitY=0.5;exitDx=0;exitDy=0;entryX=0.5;entryY=1;entryDx=0;entryDy=0;entryPerimeter=0;" parent="vvXzCavtcbA7iBqxT9JU-64" source="vvXzCavtcbA7iBqxT9JU-11" target="vvXzCavtcbA7iBqxT9JU-12" edge="1">
          <mxGeometry width="50" height="50" relative="1" as="geometry">
            <mxPoint x="160" y="130" as="sourcePoint" />
            <mxPoint x="210" y="80" as="targetPoint" />
          </mxGeometry>
        </mxCell>
        <mxCell id="vvXzCavtcbA7iBqxT9JU-14" value="&lt;font style=&quot;font-size: 20px;&quot;&gt;RF&lt;/font&gt;" style="text;html=1;align=center;verticalAlign=middle;whiteSpace=wrap;rounded=0;" parent="vvXzCavtcbA7iBqxT9JU-64" vertex="1">
          <mxGeometry x="77.5" y="65" width="36" height="30" as="geometry" />
        </mxCell>
        <mxCell id="vvXzCavtcbA7iBqxT9JU-12" value="" style="verticalLabelPosition=bottom;shadow=0;dashed=0;align=center;html=1;verticalAlign=top;shape=mxgraph.electrical.radio.aerial_-_antenna_1;" parent="vvXzCavtcbA7iBqxT9JU-64" vertex="1">
          <mxGeometry y="30" width="41" height="50" as="geometry" />
        </mxCell>
        <mxCell id="vvXzCavtcbA7iBqxT9JU-75" style="edgeStyle=orthogonalEdgeStyle;rounded=0;orthogonalLoop=1;jettySize=auto;html=1;" parent="1" source="vvXzCavtcbA7iBqxT9JU-67" target="vvXzCavtcbA7iBqxT9JU-74" edge="1">
          <mxGeometry relative="1" as="geometry" />
        </mxCell>
        <mxCell id="vvXzCavtcbA7iBqxT9JU-67" value="Waveform capture" style="rounded=0;whiteSpace=wrap;html=1;dashed=1;" parent="1" vertex="1">
          <mxGeometry x="384" y="321.88" width="76" height="63.75" as="geometry" />
        </mxCell>
        <mxCell id="vvXzCavtcbA7iBqxT9JU-70" style="edgeStyle=orthogonalEdgeStyle;rounded=0;orthogonalLoop=1;jettySize=auto;html=1;entryX=0;entryY=0.5;entryDx=0;entryDy=0;" parent="1" edge="1">
          <mxGeometry relative="1" as="geometry">
            <mxPoint x="370" y="353.7099999999999" as="sourcePoint" />
            <mxPoint x="384" y="353.71500000000003" as="targetPoint" />
          </mxGeometry>
        </mxCell>
        <mxCell id="vvXzCavtcbA7iBqxT9JU-69" value="&lt;div&gt;ADC&lt;/div&gt;&lt;div&gt;(internal)&lt;br&gt;&lt;/div&gt;" style="rounded=0;whiteSpace=wrap;html=1;" parent="1" vertex="1">
          <mxGeometry x="312" y="327.5" width="58" height="52.5" as="geometry" />
        </mxCell>
        <mxCell id="vvXzCavtcbA7iBqxT9JU-79" style="edgeStyle=orthogonalEdgeStyle;rounded=0;orthogonalLoop=1;jettySize=auto;html=1;entryX=0;entryY=0.5;entryDx=0;entryDy=0;" parent="1" source="vvXzCavtcbA7iBqxT9JU-74" target="vvXzCavtcbA7iBqxT9JU-78" edge="1">
          <mxGeometry relative="1" as="geometry" />
        </mxCell>
        <mxCell id="vvXzCavtcbA7iBqxT9JU-74" value="&lt;div&gt;Position estimation&lt;/div&gt;&lt;div&gt;(Convex projections)&lt;br&gt;&lt;/div&gt;" style="rounded=0;whiteSpace=wrap;html=1;dashed=1;" parent="1" vertex="1">
          <mxGeometry x="490" y="317.5" width="125" height="72.5" as="geometry" />
        </mxCell>
        <mxCell id="vvXzCavtcbA7iBqxT9JU-77" value="Interface for user cirucit" style="rounded=0;whiteSpace=wrap;html=1;dashed=1;fillColor=none;" parent="1" vertex="1">
          <mxGeometry x="639.75" y="226.88" width="90.25" height="60" as="geometry" />
        </mxCell>
        <mxCell id="vvXzCavtcbA7iBqxT9JU-80" style="edgeStyle=orthogonalEdgeStyle;rounded=0;orthogonalLoop=1;jettySize=auto;html=1;entryX=0.5;entryY=1;entryDx=0;entryDy=0;" parent="1" source="vvXzCavtcbA7iBqxT9JU-78" target="vvXzCavtcbA7iBqxT9JU-77" edge="1">
          <mxGeometry relative="1" as="geometry" />
        </mxCell>
        <mxCell id="vvXzCavtcbA7iBqxT9JU-78" value="&lt;div&gt;Estimated position&lt;br&gt;&lt;/div&gt;&lt;div&gt;register&lt;br&gt;&lt;/div&gt;" style="rounded=0;whiteSpace=wrap;html=1;dashed=1;" parent="1" vertex="1">
          <mxGeometry x="645.75" y="323.75" width="78.25" height="60" as="geometry" />
        </mxCell>
        <mxCell id="vvXzCavtcbA7iBqxT9JU-84" value="" style="endArrow=classic;html=1;rounded=0;entryX=0;entryY=0.5;entryDx=0;entryDy=0;" parent="1" target="vvXzCavtcbA7iBqxT9JU-88" edge="1">
          <mxGeometry width="50" height="50" relative="1" as="geometry">
            <mxPoint x="730" y="256.88" as="sourcePoint" />
            <mxPoint x="749.9949999999999" y="248.76" as="targetPoint" />
          </mxGeometry>
        </mxCell>
        <mxCell id="vvXzCavtcbA7iBqxT9JU-88" value="&lt;div&gt;User&lt;/div&gt;&lt;div&gt;device&lt;br&gt;&lt;/div&gt;" style="rounded=0;whiteSpace=wrap;html=1;" parent="1" vertex="1">
          <mxGeometry x="770" y="226.88" width="70" height="60" as="geometry" />
        </mxCell>
        <mxCell id="vvXzCavtcbA7iBqxT9JU-4" value="" style="group" parent="1" vertex="1" connectable="0">
          <mxGeometry x="190" y="240" width="71" height="60" as="geometry" />
        </mxCell>
        <mxCell id="vvXzCavtcbA7iBqxT9JU-5" value="&lt;div&gt;&lt;br&gt;&lt;/div&gt;&lt;div&gt;&lt;br&gt;&lt;/div&gt;&lt;div&gt;&lt;br&gt;&lt;/div&gt;&lt;div&gt;Supply&lt;/div&gt;" style="rounded=0;whiteSpace=wrap;html=1;" parent="vvXzCavtcbA7iBqxT9JU-4" vertex="1">
          <mxGeometry x="20" width="70" height="60" as="geometry" />
        </mxCell>
        <mxCell id="vvXzCavtcbA7iBqxT9JU-6" value="" style="verticalLabelPosition=bottom;shadow=0;dashed=0;align=center;fillColor=strokeColor;html=1;verticalAlign=top;strokeWidth=1;shape=mxgraph.electrical.miscellaneous.monocell_battery;" parent="vvXzCavtcbA7iBqxT9JU-4" vertex="1">
          <mxGeometry x="30" y="10" width="50" height="30" as="geometry" />
        </mxCell>
        <mxCell id="fBU5ysfjRrmigGFOaxRg-6" value="&lt;div&gt;$$t_f$$&lt;/div&gt;" style="text;html=1;align=center;verticalAlign=middle;whiteSpace=wrap;rounded=0;" parent="1" vertex="1">
          <mxGeometry x="457" y="325" width="40" height="30" as="geometry" />
        </mxCell>
        <mxCell id="fBU5ysfjRrmigGFOaxRg-8" value="&lt;div&gt;$$\vec{P}$$&lt;/div&gt;" style="text;html=1;align=center;verticalAlign=middle;whiteSpace=wrap;rounded=0;" parent="1" vertex="1">
          <mxGeometry x="615" y="325" width="30" height="30" as="geometry" />
        </mxCell>
        <mxCell id="fBU5ysfjRrmigGFOaxRg-9" value="&lt;div&gt;$$\vec{P}_{sat}$$&lt;/div&gt;" style="text;html=1;align=center;verticalAlign=middle;whiteSpace=wrap;rounded=0;" parent="1" vertex="1">
          <mxGeometry x="560" y="280" width="30" height="30" as="geometry" />
        </mxCell>
        <mxCell id="vvXzCavtcbA7iBqxT9JU-16" value="" style="endArrow=classic;html=1;rounded=0;exitX=1;exitY=0.5;exitDx=0;exitDy=0;entryX=-0.012;entryY=0.409;entryDx=0;entryDy=0;entryPerimeter=0;startArrow=classic;startFill=1;" parent="1" source="vvXzCavtcbA7iBqxT9JU-11" target="vvXzCavtcbA7iBqxT9JU-17" edge="1">
          <mxGeometry width="50" height="50" relative="1" as="geometry">
            <mxPoint x="240" y="210" as="sourcePoint" />
            <mxPoint x="340" y="200" as="targetPoint" />
            <Array as="points">
              <mxPoint x="298" y="200" />
            </Array>
          </mxGeometry>
        </mxCell>
        <mxCell id="fBU5ysfjRrmigGFOaxRg-11" value="Timing signal" style="text;html=1;align=center;verticalAlign=middle;whiteSpace=wrap;rounded=0;" parent="1" vertex="1">
          <mxGeometry x="372.5" y="255" width="87.5" height="30" as="geometry" />
        </mxCell>
        <mxCell id="fBU5ysfjRrmigGFOaxRg-4" style="edgeStyle=orthogonalEdgeStyle;rounded=0;orthogonalLoop=1;jettySize=auto;html=1;" parent="1" source="vvXzCavtcbA7iBqxT9JU-5" edge="1">
          <mxGeometry relative="1" as="geometry">
            <mxPoint x="311" y="270" as="targetPoint" />
          </mxGeometry>
        </mxCell>
      </root>
    </mxGraphModel>
  </diagram>
  <diagram id="3SvRmWTWCgOVG_ROXF32" name="Final diagram">
    <mxGraphModel dx="1418" dy="820" grid="1" gridSize="10" guides="1" tooltips="1" connect="1" arrows="1" fold="1" page="1" pageScale="1" pageWidth="1169" pageHeight="1654" math="1" shadow="0">
      <root>
        <mxCell id="0" />
        <mxCell id="1" parent="0" />
        <mxCell id="Hc8hHbXlJ-PBMDTjJaFf-1" value="&lt;div&gt;&lt;br&gt;&lt;/div&gt;&lt;div&gt;&lt;br&gt;&lt;/div&gt;&lt;div&gt;&lt;br&gt;&lt;/div&gt;&lt;div&gt;&lt;br&gt;&lt;/div&gt;&lt;div&gt;&lt;br&gt;&lt;/div&gt;&lt;div&gt;&lt;br&gt;&lt;/div&gt;&lt;div&gt;&lt;br&gt;&lt;/div&gt;&lt;div&gt;&lt;br&gt;&lt;/div&gt;&lt;div&gt;&lt;br&gt;&lt;/div&gt;&lt;div&gt;&lt;br&gt;&lt;/div&gt;&lt;div&gt;&lt;br&gt;&lt;/div&gt;&lt;div&gt;&lt;br&gt;&lt;/div&gt;&lt;div&gt;&lt;br&gt;&lt;/div&gt;&lt;div&gt;&lt;br&gt;&lt;/div&gt;&lt;div&gt;&lt;br&gt;&lt;/div&gt;&lt;div&gt;&lt;br&gt;&lt;/div&gt;" style="rounded=0;whiteSpace=wrap;html=1;" parent="1" vertex="1">
          <mxGeometry x="500" y="800" width="180" height="130" as="geometry" />
        </mxCell>
        <mxCell id="Hc8hHbXlJ-PBMDTjJaFf-2" style="edgeStyle=orthogonalEdgeStyle;rounded=0;orthogonalLoop=1;jettySize=auto;html=1;exitX=1;exitY=0.5;exitDx=0;exitDy=0;" parent="1" source="Hc8hHbXlJ-PBMDTjJaFf-3" edge="1">
          <mxGeometry relative="1" as="geometry">
            <mxPoint x="780" y="860" as="sourcePoint" />
            <mxPoint x="789.9949999999999" y="870.0303030303032" as="targetPoint" />
          </mxGeometry>
        </mxCell>
        <mxCell id="Hc8hHbXlJ-PBMDTjJaFf-3" value="&lt;br&gt;&lt;div&gt;&lt;br&gt;&lt;/div&gt;&lt;div&gt;&lt;br&gt;&lt;/div&gt;&lt;div&gt;Driver&lt;/div&gt;" style="rounded=0;whiteSpace=wrap;html=1;" parent="1" vertex="1">
          <mxGeometry x="700" y="840" width="70" height="60" as="geometry" />
        </mxCell>
        <mxCell id="Hc8hHbXlJ-PBMDTjJaFf-4" value="" style="group" parent="1" vertex="1" connectable="0">
          <mxGeometry x="370" y="750" width="71" height="60" as="geometry" />
        </mxCell>
        <mxCell id="Hc8hHbXlJ-PBMDTjJaFf-5" value="&lt;div&gt;&lt;br&gt;&lt;/div&gt;&lt;div&gt;&lt;br&gt;&lt;/div&gt;&lt;div&gt;&lt;br&gt;&lt;/div&gt;&lt;div&gt;Supply&lt;/div&gt;" style="rounded=0;whiteSpace=wrap;html=1;" parent="Hc8hHbXlJ-PBMDTjJaFf-4" vertex="1">
          <mxGeometry width="70" height="60" as="geometry" />
        </mxCell>
        <mxCell id="Hc8hHbXlJ-PBMDTjJaFf-6" value="" style="verticalLabelPosition=bottom;shadow=0;dashed=0;align=center;fillColor=strokeColor;html=1;verticalAlign=top;strokeWidth=1;shape=mxgraph.electrical.miscellaneous.monocell_battery;" parent="Hc8hHbXlJ-PBMDTjJaFf-4" vertex="1">
          <mxGeometry x="10" y="10" width="50" height="30" as="geometry" />
        </mxCell>
        <mxCell id="Hc8hHbXlJ-PBMDTjJaFf-7" style="edgeStyle=orthogonalEdgeStyle;rounded=0;orthogonalLoop=1;jettySize=auto;html=1;entryX=0;entryY=0.5;entryDx=0;entryDy=0;" parent="1" source="Hc8hHbXlJ-PBMDTjJaFf-8" target="Hc8hHbXlJ-PBMDTjJaFf-19" edge="1">
          <mxGeometry relative="1" as="geometry">
            <mxPoint x="625" y="830" as="targetPoint" />
          </mxGeometry>
        </mxCell>
        <mxCell id="Hc8hHbXlJ-PBMDTjJaFf-8" value="&lt;div&gt;Radio&lt;/div&gt;&lt;div&gt;Interface&lt;/div&gt;" style="rounded=0;whiteSpace=wrap;html=1;dashed=1;" parent="1" vertex="1">
          <mxGeometry x="500" y="845" width="100" height="50" as="geometry" />
        </mxCell>
        <mxCell id="Hc8hHbXlJ-PBMDTjJaFf-15" value="Microcontroller" style="text;html=1;align=center;verticalAlign=middle;whiteSpace=wrap;rounded=0;" parent="1" vertex="1">
          <mxGeometry x="535" y="800" width="110" height="30" as="geometry" />
        </mxCell>
        <mxCell id="Hc8hHbXlJ-PBMDTjJaFf-16" value="" style="verticalLabelPosition=bottom;shadow=0;dashed=0;align=center;html=1;verticalAlign=top;shape=mxgraph.electrical.transistors.npn_transistor_5;" parent="1" vertex="1">
          <mxGeometry x="733.8" y="850" width="22.4" height="35" as="geometry" />
        </mxCell>
        <mxCell id="Hc8hHbXlJ-PBMDTjJaFf-17" value="" style="endArrow=classic;html=1;rounded=0;entryX=0;entryY=0.5;entryDx=0;entryDy=0;exitX=1;exitY=0.5;exitDx=0;exitDy=0;" parent="1" target="Hc8hHbXlJ-PBMDTjJaFf-3" edge="1">
          <mxGeometry width="50" height="50" relative="1" as="geometry">
            <mxPoint x="680" y="870" as="sourcePoint" />
            <mxPoint x="760" y="940" as="targetPoint" />
          </mxGeometry>
        </mxCell>
        <mxCell id="Hc8hHbXlJ-PBMDTjJaFf-18" style="edgeStyle=orthogonalEdgeStyle;rounded=0;orthogonalLoop=1;jettySize=auto;html=1;entryX=0;entryY=0.15;entryDx=0;entryDy=0;entryPerimeter=0;" parent="1" source="Hc8hHbXlJ-PBMDTjJaFf-5" target="Hc8hHbXlJ-PBMDTjJaFf-1" edge="1">
          <mxGeometry relative="1" as="geometry" />
        </mxCell>
        <mxCell id="Hc8hHbXlJ-PBMDTjJaFf-19" value="GPIO" style="rounded=0;whiteSpace=wrap;html=1;" parent="1" vertex="1">
          <mxGeometry x="630" y="830" width="50" height="80" as="geometry" />
        </mxCell>
        <mxCell id="Hc8hHbXlJ-PBMDTjJaFf-20" value="" style="group" parent="1" vertex="1" connectable="0">
          <mxGeometry x="309" y="778" width="131" height="110" as="geometry" />
        </mxCell>
        <mxCell id="Hc8hHbXlJ-PBMDTjJaFf-21" value="&lt;div&gt;&lt;br&gt;&lt;/div&gt;&lt;div&gt;&lt;br&gt;&lt;/div&gt;&lt;div&gt;&lt;br&gt;&lt;/div&gt;&lt;div&gt;Radio&lt;/div&gt;" style="rounded=0;whiteSpace=wrap;html=1;" parent="Hc8hHbXlJ-PBMDTjJaFf-20" vertex="1">
          <mxGeometry x="60" y="50" width="71" height="60" as="geometry" />
        </mxCell>
        <mxCell id="Hc8hHbXlJ-PBMDTjJaFf-22" value="" style="endArrow=none;html=1;rounded=0;exitX=0;exitY=0.5;exitDx=0;exitDy=0;entryX=0.5;entryY=1;entryDx=0;entryDy=0;entryPerimeter=0;" parent="Hc8hHbXlJ-PBMDTjJaFf-20" source="Hc8hHbXlJ-PBMDTjJaFf-21" target="Hc8hHbXlJ-PBMDTjJaFf-24" edge="1">
          <mxGeometry width="50" height="50" relative="1" as="geometry">
            <mxPoint x="160" y="130" as="sourcePoint" />
            <mxPoint x="210" y="80" as="targetPoint" />
          </mxGeometry>
        </mxCell>
        <mxCell id="Hc8hHbXlJ-PBMDTjJaFf-23" value="&lt;font style=&quot;font-size: 20px;&quot;&gt;Tx&lt;/font&gt;" style="text;html=1;align=center;verticalAlign=middle;whiteSpace=wrap;rounded=0;" parent="Hc8hHbXlJ-PBMDTjJaFf-20" vertex="1">
          <mxGeometry x="77.5" y="65" width="36" height="30" as="geometry" />
        </mxCell>
        <mxCell id="Hc8hHbXlJ-PBMDTjJaFf-24" value="" style="verticalLabelPosition=bottom;shadow=0;dashed=0;align=center;html=1;verticalAlign=top;shape=mxgraph.electrical.radio.aerial_-_antenna_1;" parent="Hc8hHbXlJ-PBMDTjJaFf-20" vertex="1">
          <mxGeometry y="30" width="41" height="50" as="geometry" />
        </mxCell>
        <mxCell id="LPG2bGL_oTg4PtMZDfPi-1" value="" style="endArrow=classic;html=1;rounded=0;exitX=1;exitY=0.5;exitDx=0;exitDy=0;entryX=0;entryY=0.5;entryDx=0;entryDy=0;" parent="1" source="LPG2bGL_oTg4PtMZDfPi-9" target="LPG2bGL_oTg4PtMZDfPi-25" edge="1">
          <mxGeometry width="50" height="50" relative="1" as="geometry">
            <mxPoint x="172.005" y="630" as="sourcePoint" />
            <mxPoint x="382.01" y="630" as="targetPoint" />
            <Array as="points" />
          </mxGeometry>
        </mxCell>
        <mxCell id="LPG2bGL_oTg4PtMZDfPi-2" value="&lt;div&gt;&lt;br&gt;&lt;/div&gt;&lt;div&gt;&lt;br&gt;&lt;/div&gt;&lt;div&gt;&lt;br&gt;&lt;/div&gt;&lt;div&gt;&lt;br&gt;&lt;/div&gt;&lt;div&gt;&lt;br&gt;&lt;/div&gt;&lt;div&gt;&lt;br&gt;&lt;/div&gt;&lt;div&gt;&lt;br&gt;&lt;/div&gt;&lt;div&gt;&lt;br&gt;&lt;/div&gt;&lt;div&gt;&lt;br&gt;&lt;/div&gt;&lt;div&gt;&lt;br&gt;&lt;/div&gt;&lt;div&gt;&lt;br&gt;&lt;/div&gt;&lt;div&gt;&lt;br&gt;&lt;/div&gt;&lt;div&gt;&lt;br&gt;&lt;/div&gt;&lt;div&gt;&lt;br&gt;&lt;/div&gt;&lt;div&gt;&lt;br&gt;&lt;/div&gt;&lt;div&gt;&lt;br&gt;&lt;/div&gt;" style="rounded=0;whiteSpace=wrap;html=1;" parent="1" vertex="1">
          <mxGeometry x="382.01" y="450" width="418" height="260" as="geometry" />
        </mxCell>
        <mxCell id="LPG2bGL_oTg4PtMZDfPi-3" style="edgeStyle=orthogonalEdgeStyle;rounded=0;orthogonalLoop=1;jettySize=auto;html=1;entryX=0.5;entryY=0;entryDx=0;entryDy=0;exitX=0.5;exitY=1;exitDx=0;exitDy=0;" parent="1" source="LPG2bGL_oTg4PtMZDfPi-4" target="LPG2bGL_oTg4PtMZDfPi-23" edge="1">
          <mxGeometry relative="1" as="geometry">
            <Array as="points">
              <mxPoint x="441.01" y="570" />
              <mxPoint x="492.01" y="570" />
            </Array>
          </mxGeometry>
        </mxCell>
        <mxCell id="LPG2bGL_oTg4PtMZDfPi-4" value="&lt;div&gt;Radio&lt;/div&gt;&lt;div&gt;Interface&lt;/div&gt;" style="rounded=0;whiteSpace=wrap;html=1;dashed=1;fillColor=none;" parent="1" vertex="1">
          <mxGeometry x="382.01" y="470" width="118" height="50" as="geometry" />
        </mxCell>
        <mxCell id="LPG2bGL_oTg4PtMZDfPi-5" style="edgeStyle=orthogonalEdgeStyle;rounded=0;orthogonalLoop=1;jettySize=auto;html=1;entryX=0.5;entryY=0;entryDx=0;entryDy=0;" parent="1" source="LPG2bGL_oTg4PtMZDfPi-6" target="LPG2bGL_oTg4PtMZDfPi-27" edge="1">
          <mxGeometry relative="1" as="geometry" />
        </mxCell>
        <mxCell id="LPG2bGL_oTg4PtMZDfPi-6" value="&lt;div&gt;LUT:&lt;/div&gt;&lt;div&gt;Satellite positions&lt;br&gt;&lt;/div&gt;" style="rounded=0;whiteSpace=wrap;html=1;dashed=1;" parent="1" vertex="1">
          <mxGeometry x="557.51" y="528.13" width="130" height="37.5" as="geometry" />
        </mxCell>
        <mxCell id="LPG2bGL_oTg4PtMZDfPi-7" value="&lt;font style=&quot;font-size: 22px;&quot;&gt;FPGA&lt;/font&gt;" style="text;html=1;align=center;verticalAlign=middle;whiteSpace=wrap;rounded=0;" parent="1" vertex="1">
          <mxGeometry x="547.01" y="450" width="88" height="30" as="geometry" />
        </mxCell>
        <mxCell id="LPG2bGL_oTg4PtMZDfPi-8" value="" style="group" parent="1" vertex="1" connectable="0">
          <mxGeometry x="101.005" y="613.75" width="74" height="60" as="geometry" />
        </mxCell>
        <mxCell id="LPG2bGL_oTg4PtMZDfPi-9" value="&lt;div&gt;&lt;br&gt;&lt;/div&gt;&lt;div&gt;&lt;br&gt;&lt;/div&gt;&lt;div&gt;Transducer&lt;br&gt;&lt;/div&gt;&lt;div&gt;Receiver&lt;/div&gt;" style="rounded=0;whiteSpace=wrap;html=1;" parent="LPG2bGL_oTg4PtMZDfPi-8" vertex="1">
          <mxGeometry width="70" height="60" as="geometry" />
        </mxCell>
        <mxCell id="LPG2bGL_oTg4PtMZDfPi-10" value="" style="group" parent="LPG2bGL_oTg4PtMZDfPi-8" vertex="1" connectable="0">
          <mxGeometry x="16.25" y="10" width="23.75" height="20" as="geometry" />
        </mxCell>
        <mxCell id="LPG2bGL_oTg4PtMZDfPi-11" value="" style="endArrow=none;html=1;rounded=0;" parent="LPG2bGL_oTg4PtMZDfPi-10" edge="1">
          <mxGeometry width="50" height="50" relative="1" as="geometry">
            <mxPoint y="4.930000000000007" as="sourcePoint" />
            <mxPoint x="9.5" y="4.930000000000007" as="targetPoint" />
          </mxGeometry>
        </mxCell>
        <mxCell id="LPG2bGL_oTg4PtMZDfPi-12" value="" style="endArrow=none;html=1;rounded=0;" parent="LPG2bGL_oTg4PtMZDfPi-10" edge="1">
          <mxGeometry width="50" height="50" relative="1" as="geometry">
            <mxPoint y="14.930000000000007" as="sourcePoint" />
            <mxPoint x="9.5" y="14.930000000000007" as="targetPoint" />
          </mxGeometry>
        </mxCell>
        <mxCell id="LPG2bGL_oTg4PtMZDfPi-13" value="" style="shape=cylinder3;whiteSpace=wrap;html=1;boundedLbl=1;backgroundOutline=1;size=4.724137931034591;rotation=90;" parent="LPG2bGL_oTg4PtMZDfPi-10" vertex="1">
          <mxGeometry x="2.375" width="19" height="20" as="geometry" />
        </mxCell>
        <mxCell id="tHni_GAh9jqHdpjEPpwy-1" value="" style="group" parent="LPG2bGL_oTg4PtMZDfPi-8" vertex="1" connectable="0">
          <mxGeometry x="184" width="74" height="60" as="geometry" />
        </mxCell>
        <mxCell id="tHni_GAh9jqHdpjEPpwy-2" value="&lt;br&gt;&lt;br&gt;&lt;br&gt;Filter" style="rounded=0;whiteSpace=wrap;html=1;" parent="tHni_GAh9jqHdpjEPpwy-1" vertex="1">
          <mxGeometry width="70" height="60" as="geometry" />
        </mxCell>
        <mxCell id="tHni_GAh9jqHdpjEPpwy-7" value="" style="verticalLabelPosition=bottom;shadow=0;dashed=0;align=center;html=1;verticalAlign=top;shape=mxgraph.electrical.logic_gates.bandpass_filter;" parent="tHni_GAh9jqHdpjEPpwy-1" vertex="1">
          <mxGeometry x="14.5" y="6.25" width="41.01" height="37.25" as="geometry" />
        </mxCell>
        <mxCell id="LPG2bGL_oTg4PtMZDfPi-17" value="" style="group" parent="1" vertex="1" connectable="0">
          <mxGeometry x="220.01" y="410" width="131" height="110" as="geometry" />
        </mxCell>
        <mxCell id="LPG2bGL_oTg4PtMZDfPi-18" value="&lt;div&gt;&lt;br&gt;&lt;/div&gt;&lt;div&gt;&lt;br&gt;&lt;/div&gt;&lt;div&gt;&lt;br&gt;&lt;/div&gt;&lt;div&gt;Radio&lt;/div&gt;" style="rounded=0;whiteSpace=wrap;html=1;" parent="LPG2bGL_oTg4PtMZDfPi-17" vertex="1">
          <mxGeometry x="60" y="50" width="71" height="60" as="geometry" />
        </mxCell>
        <mxCell id="LPG2bGL_oTg4PtMZDfPi-19" value="" style="endArrow=none;html=1;rounded=0;exitX=0;exitY=0.5;exitDx=0;exitDy=0;entryX=0.5;entryY=1;entryDx=0;entryDy=0;entryPerimeter=0;" parent="LPG2bGL_oTg4PtMZDfPi-17" source="LPG2bGL_oTg4PtMZDfPi-18" target="LPG2bGL_oTg4PtMZDfPi-21" edge="1">
          <mxGeometry width="50" height="50" relative="1" as="geometry">
            <mxPoint x="160" y="130" as="sourcePoint" />
            <mxPoint x="210" y="80" as="targetPoint" />
          </mxGeometry>
        </mxCell>
        <mxCell id="LPG2bGL_oTg4PtMZDfPi-20" value="&lt;font style=&quot;font-size: 20px;&quot;&gt;Rx&lt;/font&gt;" style="text;html=1;align=center;verticalAlign=middle;whiteSpace=wrap;rounded=0;" parent="LPG2bGL_oTg4PtMZDfPi-17" vertex="1">
          <mxGeometry x="77.5" y="65" width="36" height="30" as="geometry" />
        </mxCell>
        <mxCell id="LPG2bGL_oTg4PtMZDfPi-21" value="" style="verticalLabelPosition=bottom;shadow=0;dashed=0;align=center;html=1;verticalAlign=top;shape=mxgraph.electrical.radio.aerial_-_antenna_1;" parent="LPG2bGL_oTg4PtMZDfPi-17" vertex="1">
          <mxGeometry y="30" width="41" height="50" as="geometry" />
        </mxCell>
        <mxCell id="LPG2bGL_oTg4PtMZDfPi-22" style="edgeStyle=orthogonalEdgeStyle;rounded=0;orthogonalLoop=1;jettySize=auto;html=1;" parent="1" source="LPG2bGL_oTg4PtMZDfPi-23" target="LPG2bGL_oTg4PtMZDfPi-27" edge="1">
          <mxGeometry relative="1" as="geometry" />
        </mxCell>
        <mxCell id="LPG2bGL_oTg4PtMZDfPi-23" value="Waveform capture" style="rounded=0;whiteSpace=wrap;html=1;dashed=1;" parent="1" vertex="1">
          <mxGeometry x="454.01" y="611.88" width="76" height="63.75" as="geometry" />
        </mxCell>
        <mxCell id="LPG2bGL_oTg4PtMZDfPi-24" style="edgeStyle=orthogonalEdgeStyle;rounded=0;orthogonalLoop=1;jettySize=auto;html=1;entryX=0;entryY=0.5;entryDx=0;entryDy=0;" parent="1" edge="1">
          <mxGeometry relative="1" as="geometry">
            <mxPoint x="440.01" y="643.7099999999999" as="sourcePoint" />
            <mxPoint x="454.01" y="643.715" as="targetPoint" />
          </mxGeometry>
        </mxCell>
        <mxCell id="LPG2bGL_oTg4PtMZDfPi-25" value="&lt;div&gt;ADC&lt;/div&gt;&lt;div&gt;(internal)&lt;br&gt;&lt;/div&gt;" style="rounded=0;whiteSpace=wrap;html=1;" parent="1" vertex="1">
          <mxGeometry x="382.01" y="617.5" width="58" height="52.5" as="geometry" />
        </mxCell>
        <mxCell id="LPG2bGL_oTg4PtMZDfPi-26" style="edgeStyle=orthogonalEdgeStyle;rounded=0;orthogonalLoop=1;jettySize=auto;html=1;entryX=0;entryY=0.5;entryDx=0;entryDy=0;" parent="1" source="LPG2bGL_oTg4PtMZDfPi-27" target="LPG2bGL_oTg4PtMZDfPi-30" edge="1">
          <mxGeometry relative="1" as="geometry" />
        </mxCell>
        <mxCell id="LPG2bGL_oTg4PtMZDfPi-27" value="&lt;div&gt;Position estimation&lt;/div&gt;&lt;div&gt;(Convex projections)&lt;br&gt;&lt;/div&gt;" style="rounded=0;whiteSpace=wrap;html=1;dashed=1;" parent="1" vertex="1">
          <mxGeometry x="560.01" y="607.5" width="125" height="72.5" as="geometry" />
        </mxCell>
        <mxCell id="LPG2bGL_oTg4PtMZDfPi-28" value="SPI&amp;nbsp;&lt;br&gt;Subnode" style="rounded=0;whiteSpace=wrap;html=1;dashed=1;fillColor=none;" parent="1" vertex="1">
          <mxGeometry x="709.76" y="516.88" width="90.25" height="60" as="geometry" />
        </mxCell>
        <mxCell id="LPG2bGL_oTg4PtMZDfPi-29" style="edgeStyle=orthogonalEdgeStyle;rounded=0;orthogonalLoop=1;jettySize=auto;html=1;entryX=0.5;entryY=1;entryDx=0;entryDy=0;" parent="1" source="LPG2bGL_oTg4PtMZDfPi-30" target="LPG2bGL_oTg4PtMZDfPi-28" edge="1">
          <mxGeometry relative="1" as="geometry" />
        </mxCell>
        <mxCell id="LPG2bGL_oTg4PtMZDfPi-30" value="&lt;div&gt;Estimated position&lt;br&gt;&lt;/div&gt;&lt;div&gt;register&lt;br&gt;&lt;/div&gt;" style="rounded=0;whiteSpace=wrap;html=1;dashed=1;" parent="1" vertex="1">
          <mxGeometry x="715.76" y="613.75" width="78.25" height="60" as="geometry" />
        </mxCell>
        <mxCell id="LPG2bGL_oTg4PtMZDfPi-31" value="" style="endArrow=classic;html=1;rounded=0;entryX=0;entryY=0.5;entryDx=0;entryDy=0;" parent="1" target="LPG2bGL_oTg4PtMZDfPi-43" edge="1">
          <mxGeometry width="50" height="50" relative="1" as="geometry">
            <mxPoint x="800.01" y="546.88" as="sourcePoint" />
            <mxPoint x="820.0049999999999" y="538.76" as="targetPoint" />
          </mxGeometry>
        </mxCell>
        <mxCell id="LPG2bGL_oTg4PtMZDfPi-32" value="" style="rounded=0;whiteSpace=wrap;html=1;" parent="1" vertex="1">
          <mxGeometry x="865.01" y="490" width="160" height="100" as="geometry" />
        </mxCell>
        <mxCell id="LPG2bGL_oTg4PtMZDfPi-33" value="" style="group" parent="1" vertex="1" connectable="0">
          <mxGeometry x="260.01" y="530" width="71" height="60" as="geometry" />
        </mxCell>
        <mxCell id="LPG2bGL_oTg4PtMZDfPi-34" value="&lt;div&gt;&lt;br&gt;&lt;/div&gt;&lt;div&gt;&lt;br&gt;&lt;/div&gt;&lt;div&gt;&lt;br&gt;&lt;/div&gt;&lt;div&gt;Supply&lt;/div&gt;" style="rounded=0;whiteSpace=wrap;html=1;" parent="LPG2bGL_oTg4PtMZDfPi-33" vertex="1">
          <mxGeometry x="20" width="70" height="60" as="geometry" />
        </mxCell>
        <mxCell id="LPG2bGL_oTg4PtMZDfPi-35" value="" style="verticalLabelPosition=bottom;shadow=0;dashed=0;align=center;fillColor=strokeColor;html=1;verticalAlign=top;strokeWidth=1;shape=mxgraph.electrical.miscellaneous.monocell_battery;" parent="LPG2bGL_oTg4PtMZDfPi-33" vertex="1">
          <mxGeometry x="30" y="10" width="50" height="30" as="geometry" />
        </mxCell>
        <mxCell id="LPG2bGL_oTg4PtMZDfPi-36" value="&lt;div&gt;$$t_f$$&lt;/div&gt;" style="text;html=1;align=center;verticalAlign=middle;whiteSpace=wrap;rounded=0;" parent="1" vertex="1">
          <mxGeometry x="527.01" y="615" width="40" height="30" as="geometry" />
        </mxCell>
        <mxCell id="LPG2bGL_oTg4PtMZDfPi-37" value="&lt;div&gt;$$\vec{P}$$&lt;/div&gt;" style="text;html=1;align=center;verticalAlign=middle;whiteSpace=wrap;rounded=0;" parent="1" vertex="1">
          <mxGeometry x="685.01" y="615" width="30" height="30" as="geometry" />
        </mxCell>
        <mxCell id="LPG2bGL_oTg4PtMZDfPi-38" value="&lt;div&gt;$$\vec{P}_{sat}$$&lt;/div&gt;" style="text;html=1;align=center;verticalAlign=middle;whiteSpace=wrap;rounded=0;" parent="1" vertex="1">
          <mxGeometry x="630.01" y="570" width="30" height="30" as="geometry" />
        </mxCell>
        <mxCell id="LPG2bGL_oTg4PtMZDfPi-40" value="Timing signal" style="text;html=1;align=center;verticalAlign=middle;whiteSpace=wrap;rounded=0;" parent="1" vertex="1">
          <mxGeometry x="442.51" y="545" width="87.5" height="30" as="geometry" />
        </mxCell>
        <mxCell id="LPG2bGL_oTg4PtMZDfPi-41" style="edgeStyle=orthogonalEdgeStyle;rounded=0;orthogonalLoop=1;jettySize=auto;html=1;" parent="1" source="LPG2bGL_oTg4PtMZDfPi-34" edge="1">
          <mxGeometry relative="1" as="geometry">
            <mxPoint x="381.01" y="560" as="targetPoint" />
          </mxGeometry>
        </mxCell>
        <mxCell id="LPG2bGL_oTg4PtMZDfPi-42" value="External Microcontroller" style="text;html=1;align=center;verticalAlign=middle;resizable=0;points=[];autosize=1;strokeColor=none;fillColor=none;" parent="1" vertex="1">
          <mxGeometry x="875.01" y="490" width="150" height="30" as="geometry" />
        </mxCell>
        <mxCell id="LPG2bGL_oTg4PtMZDfPi-43" value="SPI&lt;br&gt;Main" style="rounded=0;whiteSpace=wrap;html=1;dashed=1;" parent="1" vertex="1">
          <mxGeometry x="865.01" y="516.88" width="60" height="60" as="geometry" />
        </mxCell>
        <mxCell id="6mT0IHwWiUkptBssqhdi-3" value="Position data log" style="rounded=0;whiteSpace=wrap;html=1;dashed=1;" parent="1" vertex="1">
          <mxGeometry x="955.01" y="516.88" width="60" height="60" as="geometry" />
        </mxCell>
        <mxCell id="zy64vnSDufdgrNQUBABW-2" value="" style="endArrow=classic;html=1;rounded=0;entryX=-0.004;entryY=0.401;entryDx=0;entryDy=0;exitX=1;exitY=0.5;exitDx=0;exitDy=0;entryPerimeter=0;" parent="1" source="LPG2bGL_oTg4PtMZDfPi-18" target="LPG2bGL_oTg4PtMZDfPi-4" edge="1">
          <mxGeometry width="50" height="50" relative="1" as="geometry">
            <mxPoint x="345.01" y="490" as="sourcePoint" />
            <mxPoint x="795.01" y="660" as="targetPoint" />
            <Array as="points">
              <mxPoint x="365.01" y="490" />
            </Array>
          </mxGeometry>
        </mxCell>
        <mxCell id="zy64vnSDufdgrNQUBABW-3" value="&lt;div&gt;&lt;br&gt;&lt;/div&gt;&lt;div&gt;&lt;br&gt;&lt;/div&gt;&lt;div&gt;&lt;br&gt;&lt;/div&gt;&lt;div&gt;Radio&lt;/div&gt;" style="rounded=0;whiteSpace=wrap;html=1;" parent="1" vertex="1">
          <mxGeometry x="370" y="910" width="71" height="60" as="geometry" />
        </mxCell>
        <mxCell id="zy64vnSDufdgrNQUBABW-4" value="" style="endArrow=none;html=1;rounded=0;exitX=0;exitY=0.5;exitDx=0;exitDy=0;entryX=0.5;entryY=1;entryDx=0;entryDy=0;entryPerimeter=0;" parent="1" source="zy64vnSDufdgrNQUBABW-3" edge="1">
          <mxGeometry width="50" height="50" relative="1" as="geometry">
            <mxPoint x="470" y="990" as="sourcePoint" />
            <mxPoint x="331" y="940" as="targetPoint" />
          </mxGeometry>
        </mxCell>
        <mxCell id="zy64vnSDufdgrNQUBABW-5" value="&lt;font style=&quot;font-size: 20px;&quot;&gt;Rx&lt;/font&gt;" style="text;html=1;align=center;verticalAlign=middle;whiteSpace=wrap;rounded=0;" parent="1" vertex="1">
          <mxGeometry x="387.5" y="925" width="36" height="30" as="geometry" />
        </mxCell>
        <mxCell id="zy64vnSDufdgrNQUBABW-6" value="" style="verticalLabelPosition=bottom;shadow=0;dashed=0;align=center;html=1;verticalAlign=top;shape=mxgraph.electrical.radio.aerial_-_antenna_1;" parent="1" vertex="1">
          <mxGeometry x="311" y="890" width="41" height="50" as="geometry" />
        </mxCell>
        <mxCell id="zy64vnSDufdgrNQUBABW-9" value="" style="endArrow=classic;html=1;rounded=0;exitX=0;exitY=0.25;exitDx=0;exitDy=0;entryX=1;entryY=0.5;entryDx=0;entryDy=0;" parent="1" source="Hc8hHbXlJ-PBMDTjJaFf-8" target="Hc8hHbXlJ-PBMDTjJaFf-21" edge="1">
          <mxGeometry width="50" height="50" relative="1" as="geometry">
            <mxPoint x="430" y="880" as="sourcePoint" />
            <mxPoint x="480" y="830" as="targetPoint" />
            <Array as="points">
              <mxPoint x="470" y="858" />
            </Array>
          </mxGeometry>
        </mxCell>
        <mxCell id="zy64vnSDufdgrNQUBABW-10" value="" style="endArrow=classic;html=1;rounded=0;exitX=1;exitY=0.5;exitDx=0;exitDy=0;entryX=0;entryY=0.75;entryDx=0;entryDy=0;" parent="1" source="zy64vnSDufdgrNQUBABW-3" target="Hc8hHbXlJ-PBMDTjJaFf-8" edge="1">
          <mxGeometry width="50" height="50" relative="1" as="geometry">
            <mxPoint x="430" y="880" as="sourcePoint" />
            <mxPoint x="480" y="830" as="targetPoint" />
            <Array as="points">
              <mxPoint x="470" y="940" />
              <mxPoint x="470" y="883" />
            </Array>
          </mxGeometry>
        </mxCell>
        <mxCell id="zy64vnSDufdgrNQUBABW-12" value="&lt;div&gt;&lt;br&gt;&lt;/div&gt;&lt;div&gt;&lt;br&gt;&lt;/div&gt;&lt;div&gt;Transducer&lt;br&gt;&lt;/div&gt;&lt;div&gt;Transmitter&lt;/div&gt;" style="rounded=0;whiteSpace=wrap;html=1;" parent="1" vertex="1">
          <mxGeometry x="790.005" y="840" width="70" height="60" as="geometry" />
        </mxCell>
        <mxCell id="zy64vnSDufdgrNQUBABW-13" value="" style="group" parent="1" vertex="1" connectable="0">
          <mxGeometry x="806.255" y="850" width="23.75" height="20" as="geometry" />
        </mxCell>
        <mxCell id="zy64vnSDufdgrNQUBABW-14" value="" style="endArrow=none;html=1;rounded=0;" parent="zy64vnSDufdgrNQUBABW-13" edge="1">
          <mxGeometry width="50" height="50" relative="1" as="geometry">
            <mxPoint y="4.930000000000007" as="sourcePoint" />
            <mxPoint x="9.5" y="4.930000000000007" as="targetPoint" />
          </mxGeometry>
        </mxCell>
        <mxCell id="zy64vnSDufdgrNQUBABW-15" value="" style="endArrow=none;html=1;rounded=0;" parent="zy64vnSDufdgrNQUBABW-13" edge="1">
          <mxGeometry width="50" height="50" relative="1" as="geometry">
            <mxPoint y="14.930000000000007" as="sourcePoint" />
            <mxPoint x="9.5" y="14.930000000000007" as="targetPoint" />
          </mxGeometry>
        </mxCell>
        <mxCell id="zy64vnSDufdgrNQUBABW-16" value="" style="shape=cylinder3;whiteSpace=wrap;html=1;boundedLbl=1;backgroundOutline=1;size=4.724137931034591;rotation=90;" parent="zy64vnSDufdgrNQUBABW-13" vertex="1">
          <mxGeometry x="2.375" width="19" height="20" as="geometry" />
        </mxCell>
        <mxCell id="v1nmq6tPdy2rl9eUfELH-1" value="" style="group" parent="1" vertex="1" connectable="0">
          <mxGeometry x="194.01" y="622.75" width="70" height="50" as="geometry" />
        </mxCell>
        <mxCell id="v1nmq6tPdy2rl9eUfELH-2" value="&lt;div&gt;&lt;br&gt;&lt;/div&gt;&lt;div&gt;&lt;br&gt;&lt;/div&gt;&lt;div&gt;&lt;br&gt;&lt;/div&gt;&lt;div&gt;Amplifier&lt;/div&gt;" style="rounded=0;whiteSpace=wrap;html=1;" parent="v1nmq6tPdy2rl9eUfELH-1" vertex="1">
          <mxGeometry x="-1" y="-9" width="70" height="60" as="geometry" />
        </mxCell>
        <mxCell id="v1nmq6tPdy2rl9eUfELH-3" value="" style="group" parent="v1nmq6tPdy2rl9eUfELH-1" vertex="1" connectable="0">
          <mxGeometry x="14" y="-6.5" width="45" height="41.5" as="geometry" />
        </mxCell>
        <mxCell id="v1nmq6tPdy2rl9eUfELH-4" value="" style="triangle;whiteSpace=wrap;html=1;" parent="v1nmq6tPdy2rl9eUfELH-3" vertex="1">
          <mxGeometry x="7.826086956521739" width="29.34782608695652" height="41.5" as="geometry" />
        </mxCell>
        <mxCell id="v1nmq6tPdy2rl9eUfELH-5" value="" style="endArrow=none;html=1;rounded=0;exitX=0;exitY=0.25;exitDx=0;exitDy=0;" parent="v1nmq6tPdy2rl9eUfELH-3" source="v1nmq6tPdy2rl9eUfELH-4" edge="1">
          <mxGeometry width="50" height="50" relative="1" as="geometry">
            <mxPoint x="29.34782608695652" y="-5.1875" as="sourcePoint" />
            <mxPoint y="10.375" as="targetPoint" />
          </mxGeometry>
        </mxCell>
        <mxCell id="v1nmq6tPdy2rl9eUfELH-6" value="" style="endArrow=none;html=1;rounded=0;exitX=0;exitY=0.25;exitDx=0;exitDy=0;" parent="v1nmq6tPdy2rl9eUfELH-3" edge="1">
          <mxGeometry width="50" height="50" relative="1" as="geometry">
            <mxPoint x="7.826086956521739" y="31.125" as="sourcePoint" />
            <mxPoint y="31.125" as="targetPoint" />
          </mxGeometry>
        </mxCell>
        <mxCell id="v1nmq6tPdy2rl9eUfELH-7" value="" style="endArrow=none;html=1;rounded=0;" parent="v1nmq6tPdy2rl9eUfELH-3" edge="1">
          <mxGeometry width="50" height="50" relative="1" as="geometry">
            <mxPoint x="12.228260869565219" y="12.96875" as="sourcePoint" />
            <mxPoint x="12.228260869565219" y="7.78125" as="targetPoint" />
          </mxGeometry>
        </mxCell>
        <mxCell id="v1nmq6tPdy2rl9eUfELH-8" value="" style="endArrow=none;html=1;rounded=0;" parent="v1nmq6tPdy2rl9eUfELH-3" edge="1">
          <mxGeometry width="50" height="50" relative="1" as="geometry">
            <mxPoint x="14.67391304347826" y="10.375" as="sourcePoint" />
            <mxPoint x="9.782608695652174" y="10.375" as="targetPoint" />
          </mxGeometry>
        </mxCell>
        <mxCell id="v1nmq6tPdy2rl9eUfELH-9" value="" style="endArrow=none;html=1;rounded=0;" parent="v1nmq6tPdy2rl9eUfELH-3" edge="1">
          <mxGeometry width="50" height="50" relative="1" as="geometry">
            <mxPoint x="14.67391304347826" y="31.125" as="sourcePoint" />
            <mxPoint x="9.782608695652174" y="31.125" as="targetPoint" />
          </mxGeometry>
        </mxCell>
        <mxCell id="v1nmq6tPdy2rl9eUfELH-10" value="" style="endArrow=none;html=1;rounded=0;exitX=0;exitY=0.25;exitDx=0;exitDy=0;" parent="v1nmq6tPdy2rl9eUfELH-3" edge="1">
          <mxGeometry width="50" height="50" relative="1" as="geometry">
            <mxPoint x="44.99999999999999" y="20.713687499999974" as="sourcePoint" />
            <mxPoint x="37.17391304347826" y="20.713687499999974" as="targetPoint" />
          </mxGeometry>
        </mxCell>
      </root>
    </mxGraphModel>
  </diagram>
</mxfile>
